<svg xmlns="http://www.w3.org/2000/svg" viewBox="0 0 70 70">
  <g data-name="Group 12098" transform="translate(5351 -14652)">
    <rect data-name="Rectangle 3140" width="70" height="70" rx="18" transform="translate(-5351 14652)" fill="#281e78"/>
    <g data-name="Group 12138">
      <path data-name="Union 19" d="M-5329.282 14676.975a4.519 4.519 0 110-9.038h25.608v.065a1.5 1.5 0 110 2.886v.062h-25.608a1.507 1.507 0 100 3.013h25.608v.077a1.5 1.5 0 110 2.852v.084z" fill="#37eb77" stroke="#37eb77"/>
    </g>
    <g data-name="Group 12141">
      <path data-name="Union 19" d="M-5329.282 14706.063a4.519 4.519 0 110-9.038h25.608v.065a1.5 1.5 0 110 2.886v.062h-25.608a1.507 1.507 0 100 3.013h25.608v.077a1.5 1.5 0 110 2.852v.084z" fill="#37eb77" stroke="#37eb77"/>
    </g>
    <g data-name="Group 12140">
      <path data-name="Union 20" d="M-5326.326 14691.518v-.07a1.5 1.5 0 110-2.882v-.06h25.608a1.507 1.507 0 000-3.013h-25.608v-.063a1.5 1.5 0 110-2.878v-.072h25.608a4.519 4.519 0 110 9.038z" fill="#00ebe5" stroke="#00ebe5"/>
    </g>
  </g>
</svg>