<svg xmlns="http://www.w3.org/2000/svg" viewBox="0 0 177 390">
  <defs>
    <linearGradient id="b" x1=".149" y1=".296" x2=".73" y2=".801" gradientUnits="objectBoundingBox">
      <stop offset="0" stop-color="#0ffff9"/>
      <stop offset="1" stop-color="#37eb77"/>
    </linearGradient>
    <clipPath id="a">
      <path d="M10 0h167v390H10a10 10 0 01-10-10V10A10 10 0 0110 0z" transform="translate(321 460)" fill="#dbdbdb"/>
    </clipPath>
  </defs>
  <g data-name="Mask Group 7071" transform="translate(-321 -460)" clip-path="url(#a)">
    <path transform="translate(321 460)" fill="url(#b)" d="M0 0h177v390H0z"/>
    <g data-name="Group 12125" opacity=".9">
      <g data-name="Group 5749" fill="#c3fc33">
        <path data-name="Path 3350" d="M444.865 771.208a5.119 5.119 0 00-1.781 3.405c-.118.75-.8.853-1.318.985a2.2 2.2 0 00-1.218.5.854.854 0 01-.81.066 12.23 12.23 0 01-1.872-1.168 26.838 26.838 0 01-4.916-6.256 57.105 57.105 0 01-4-7.077c-.339-.777-.353-.771.5-1.375.694 1.319 1.34 2.658 2.089 3.938.594 1.014 1.312 1.956 2.035 3.017a.983.983 0 00-.1-1.082 40.648 40.648 0 01-3.888-6.637l.59-.386.339.293v-.866l1.586-.315c.473.221.7 1.058 1.476 1.162-.025.847.715 1.268 1.087 1.887a19.969 19.969 0 001.529 2c.5-.067.873-.136 1.251-.163 1.324-.094 1.292-.052 2.117.676.916.808 1.544 1.938 2.725 2.452a.323.323 0 01.165.229c.037.85.514 1.159 1.312 1.366.67.173.86.88.892 1.575.027.534.125 1.063.21 1.774z"/>
        <path data-name="Path 3351" d="M326.673 672.422c.948.474.948.474 1.458-.519.649-.222 1.432.225 2.019-.37a19.054 19.054 0 001.98.481c1.081.148 1.639.984 2.25 1.689.414.478.848.958 1.227 1.477.442.607.972 1.15 1.417 1.757.4.549.747 1.142 1.105 1.724a1.015 1.015 0 01.212.528 1.258 1.258 0 00.439 1.079c.617.623.57 1.537.783 2.313a6.887 6.887 0 01.021 2.325c-.025.3-.064.927-.714.461-.046-.033-.273.21-.43.3s-.448.28-.505.229c-.687-.6-.855-.172-1.169.424-.462.877-.744.813-1.984.591-.755-.135-1.555-.159-2-.813-1.2-1.771-2.419-3.53-2.585-5.794a3.536 3.536 0 00-1.068-2.507c-.645-.562-1.073-1.366-1.953-1.679-.265-.095-.46-.411-.666-.644a2.587 2.587 0 01-.685-1.751c-.009-.726.565-.889.848-1.301z"/>
        <path data-name="Path 3352" d="M427.984 731.617c-.774-.774-1.423-1.531-2.18-2.16-2.172-1.8-3.2-4.351-4.5-6.724a6.518 6.518 0 01-.391-3.415c0-.2.281-.394.442-.6l.73 1.444v-2.137a5.38 5.38 0 001.209-.627 1.162 1.162 0 011.157-.19 4.6 4.6 0 011.161.7 4.233 4.233 0 00.748 3.035c.488-.132 1.066.215 1.555-.287a.629.629 0 01.591-.026c1.2.722 2.671 1.1 3.277 2.586.109.266.23.612.449.73.33.179.033.738.6.759.467.018.169.493.252.752a7.055 7.055 0 01.3.964 5.676 5.676 0 01.011.933 9.524 9.524 0 00-2.563 3.8z"/>
        <path data-name="Path 3353" d="M297.801 658.744c.285-.388.507-.712.753-1.016a1.2 1.2 0 01.357-.261c.367-.206.63.375 1.041.122a2.626 2.626 0 011.067-.412c.3-.029.757.339.921.221.366-.263.583-.343.9.013.058.066.275.016.41-.016 1-.241.995-.244 1.528.725l.25-.722a8.121 8.121 0 01.378 1.051 7.818 7.818 0 01.117 1.2 2.6 2.6 0 00.231 1.224l.151-1.5.161-.007a7.834 7.834 0 01.083.8c.009 1.352-.056 2.707.022 4.054a5.008 5.008 0 01-.807 3.246c-.252-.241-.49-.605-.777-.023-.313.636-.815.588-1.464.3-.108.691-.156 1.507-1.3 1.247v-1.733l-.23-.046-.55 1.789c-.512-.343-.931-.708-.848-1.428.023-.2-.213-.423-.289-.65-.33-.982-.324-.985-1.141-1.008h-.896c-.4-.4-.752-.776-1.133-1.128a4.268 4.268 0 01-1.2-2.776c-.065-.512.046-1.046-.027-1.556a1.953 1.953 0 01.465-1.372c.51-.798.788-.82 1.827-.338z"/>
        <path data-name="Path 3354" d="M388.956 671.115c-.667.453-1.308.906-1.977 1.315-.065.04-.3-.2-.549-.371a5.768 5.768 0 01-.421.734 9.079 9.079 0 01-.655.667c-.44.454-.864.958-1.515.27-.049-.052-.2 0-.3-.011-.731-.079-1.428.1-2.162-.485a16.989 16.989 0 01-1.9-1.382 7.915 7.915 0 01-1.425-1.75 5.333 5.333 0 01-.911-3.362 4.7 4.7 0 01.459-1.019l.97.8c.255-.844.2-1.826.985-2.569l.973.727v-1.14a13 13 0 012.99-.467 2.271 2.271 0 011.474.581 8.716 8.716 0 011.46 1.378c.354.533.839.979 1.211 1.528a19.56 19.56 0 011.263 2.918 4.222 4.222 0 01.03 1.638z"/>
        <path data-name="Path 3355" d="M322.757 700.998v3.354a7.825 7.825 0 00.284-2.556c.01-.343-.152-.769.264-.974a4.7 4.7 0 011.346-.49c.159-.023.463.353.553.6a2.91 2.91 0 01.022.928c.259-.108.413-.233.552-.218.285.032.677.3.823.189.813-.6 1.7-.205 2.543-.251a1.449 1.449 0 011.137.541c.448.759 1.349.991 1.823 1.885a2.178 2.178 0 00.463 1.361 3.15 3.15 0 01.8 2.466 9.678 9.678 0 00-.013 1.48c-1.065.632-2.174 1.247-3.237 1.932-1.112.718-2.124.235-3.07-.261-.691-.361-1.617-.532-1.851-1.5-1.544-.7-1.818-2.323-2.643-3.552a6.44 6.44 0 01-.695-2.662c-.13-.723.381-1.56.608-2.347z"/>
        <path data-name="Path 3356" d="M353.002 717.91l-2.141-2.141a12.621 12.621 0 01.027-1.741c.03-.223.354-.449.594-.58.091-.051.326.162.5.255.227-.449.36-1.058 1.127-.91a.616.616 0 00.442-.042 1.477 1.477 0 011.288-.489 6.154 6.154 0 012.536.991 11.292 11.292 0 013.307 4.224 17.225 17.225 0 01.956 3.176 1.514 1.514 0 01-.583 1.5c-.888.622-1.742 1.293-2.65 1.885a1.891 1.891 0 01-1.1.309 4.688 4.688 0 01-4.561-3.831 3.188 3.188 0 01-.282-1.112 7.309 7.309 0 01.54-1.494z"/>
        <path data-name="Path 3357" d="M356.898 774.383l-.185-.94c0 1.244-1.317 1.709-1.6 2.766a.62.62 0 01-.894.337c-.378-.342-.635-.093-.848.046a1.381 1.381 0 01-1.627 0c-1.668-.976-3.39-1.872-4.373-3.66-1.185-.641-1.532-1.944-2.269-2.934a7.69 7.69 0 01-.722-1.791c.436-.635 1.068-.467 1.834-.085a2.553 2.553 0 00-.205-.9c-.209-.281.014-.392.133-.441a4.623 4.623 0 001.539-.817c.108-.1.415-.062.605 0 .34.1.631.32 1.009.013.107-.087.455.086.674.182a9.649 9.649 0 014.7 3.7 4.545 4.545 0 00.741.746c.725.674.861 1.655 1.422 2.381a1.224 1.224 0 01.066 1.397z"/>
        <path data-name="Path 3358" d="M451.779 701.505l.128-.895c.114.082.214.115.241.179a18.9 18.9 0 011.135 2.967c.148.66.336 1.291-.3 1.8-.434.349.006 1.354-.97 1.3-.461.74-1.2.666-1.906.615a10.921 10.921 0 01-.467 1.408c-.234.485-.984.622-1.787.393-.183-.053-.36-.23-.529-.216-1.3.113-1.3.123-1.846-.9a15.488 15.488 0 01-.815-1.537 2.263 2.263 0 00-1.319-1.344 2.972 2.972 0 01-1.784-2.279 2.547 2.547 0 011.091-2.414l1.374 1.794c0-.755-.008-1.264 0-1.772s.065-.4.865-.762c.57-.257 1.4.055 1.726-.737l1.691-.065c1.041-.041 1.965.073 2.451 1.23a5.593 5.593 0 001.021 1.235z"/>
        <path data-name="Path 3359" d="M297.676 709.101a2.151 2.151 0 01-1.779-1.91 13.242 13.242 0 01-.4-2.985 26.9 26.9 0 00-.005-4.055c-.049-.653.37-1.136.361-1.746 0-.159.218-.465.323-.459.8.046 1.187-.826 2.031-.83.559 0 1.114-.527 1.742-.855.618.618 1.932-.146 2.433 1.216-.328.958.489 1.8.766 2.779.038.136.182.259.183.389.013 1.544.008 3.088.008 4.766l-.627-.556c.084.363.068.64.192.735s.41-.011.6.051c.084.029.13.252.139.391 0 .064-.134.2-.184.194-.378-.074-.751-.177-1.16-.28l-.8 1.731-.935-.07c.446.449-.066.611-.252.887s-.326.594-.476.874c-.983-.107-1.35-.741-1.613-1.581z"/>
        <path data-name="Path 3360" d="M412.74 780.982c-.809-.023-1.574-.241-1.965.655-.66-.87-.738-1.487-.065-2.178a9.862 9.862 0 011.361-1.485c.518-.361.708-1.159 1.154-1.667a6.9 6.9 0 011.3-.939l.519.508-.734.521.081.188 1.113-.175c.106.159.23.57.5.708a10.245 10.245 0 013.58 3.637 12.82 12.82 0 01.683 1.587c.632 1.276.794 1.512.6 2.673a4.258 4.258 0 01-.951 2.415 1.781 1.781 0 00-.551 1c-.034.871-.513 1.01-1.216.966a1.878 1.878 0 00-.6.064c-1.228.33-1.355.3-1.967-.645a19.639 19.639 0 01-1.867-4.535c-.375-1.092-.663-2.222-.975-3.298z"/>
        <path data-name="Path 3361" d="M392.86 763.834a10.677 10.677 0 01-2.455-1.638c-1.319-1.332-2.735-2.58-3.951-4a20.157 20.157 0 01-3.406-4.711c.081-.691.981.042 1-.772.005-.233.575-.458.892-.678.785-.548 1.224-.64 1.8-.031a3.435 3.435 0 001.956.973c1.141.242 1.929 1.118 2.905 1.657a13.64 13.64 0 012.638 2.312 14.792 14.792 0 011.364 1.2 4.157 4.157 0 01.863 1.6 1.632 1.632 0 01-.445 1.183c-.328.382-.484.934-1.059 1.119-.332.107-.285.479-.35.784-.075.352-.173.779-.782.338-.433-.313-.791.124-.97.664z"/>
        <path data-name="Path 3362" d="M455.789 754.794a6.8 6.8 0 01-3.308-3.423 28.484 28.484 0 01-1.776-3.626c-.5-1.246-1.361-2.427-.975-3.995 1.127.785 1.034 2.286 2.115 3.29-.2-1.588-1.022-2.814-1.432-4.487l1.027.563.15-.842 1.485-.282c.145.233.336.577.563.9.885 1.24.89 1.234 2.5 1.805a2.642 2.642 0 01.511.272 7.855 7.855 0 013.063 3.04 5.329 5.329 0 01.583 1.972.663.663 0 00.194.381.378.378 0 01-.113.639c-.7.4-1.006 1.176-1.63 1.642a1.049 1.049 0 00-.362.791 1.523 1.523 0 01-1.352.933c-.252-.058-.416-.522-.76-.18a5.811 5.811 0 00-.483.607z"/>
        <path data-name="Path 3363" d="M405.171 718.366l-.954.157.384.718-2.312 2.312a2.34 2.34 0 00-.433 0c-1.753.325-2.921-.67-3.9-1.87a14.155 14.155 0 01-1.923-3.1 3.248 3.248 0 01-.375-2.306l1.48 3.251.253-.082a2.988 2.988 0 00-.121-.593c-.317-.753-.677-1.489-.976-2.249-.132-.336-.416-.755.307-.911.223-.048.354-.53.524-.814.149-.25.294-.5.412-.7.73-.067.737.573 1.193.835-.106-.4-.213-.8-.352-1.334l.859-.681c.2.2.458.509.7-.067.263-.623.651-.865 1.282-.456.057.037.176.065.214.034.73-.6 1.159 0 1.5.458a15.145 15.145 0 011.668 3.673c.113.295.361.986-.471 1.02-.046 0-.083.26-.124.4.173.042.439.176.5.109a.368.368 0 01.671.25c-.273.661.379 1.298-.006 1.946z"/>
        <path data-name="Path 3364" d="M399.51 685.011l.646.646.139-1.2c.643-.135 1.307-.3 1.98-.4a4.21 4.21 0 011.242 0c.31.048.067.625.644.675.372.033.66.667.925 1.108.215.359-.107 1.134.711 1.087l.085 1.522c0 .05.014.1.021.147l2.323 2.323a4.894 4.894 0 01.763.008c.388.062.806.447.607.685-.443.53.351.9.035 1.329a4.416 4.416 0 01-2.573.23l.73 1.58c-.157.151-.364.518-.568.516-1.288-.009-2.643.318-3.791-.6a5.5 5.5 0 01-.929-.746c-.552-.691-1.046-1.429-1.55-2.158-.248-.36-.46-.745-.7-1.111-.369-.569-.26-1.386-.937-1.793a3.314 3.314 0 00-.534-1.8 1.5 1.5 0 01.731-2.048z"/>
        <path data-name="Path 3365" d="M351.27 661.836h1.441c.558 0 1.161-.092 1.289.713a.4.4 0 00.322.212c.661-.1.832.526 1.236.8 1.1.745 1.258 1.972 1.532 3.107.156.647-.053 1.111-.789 1.552a6.211 6.211 0 00-2.428 1.7c-.5.01-.911.793-1.5.166a.605.605 0 00-.412-.118c-1.973.038-3.207-1.095-4.238-2.6a7.068 7.068 0 01-1.384-2.394 8.316 8.316 0 01-.162-1.178c-.009-.129.067-.354.158-.387.794-.283 1.371-.961 2.14-1.236a6.194 6.194 0 012.795-.337z"/>
        <path data-name="Path 3366" d="M348.764 737.662l.723 1.138c.073-.544.1-.73.123-.917.069-.62.068-.619.851-.7.1-.01.248 0 .284-.052a1.234 1.234 0 011.478-.551 5.123 5.123 0 011.819.851 14.385 14.385 0 013.961 6.141 4.005 4.005 0 01.021 1.345l-.6-.066c.04.561-.087.975-.743 1.108a.77.77 0 00-.485.531c-.066.675-.759.346-1 .7-.387-.615-1.051.13-1.486-.309-.416-.421-.986-.746-1.261-1.239a17.354 17.354 0 01-1.541-3.406 2.026 2.026 0 00-.918-1.284 4.042 4.042 0 01-1.717-1.812c-.307-.673-.32-.667.491-1.478z"/>
        <path data-name="Path 3367" d="M378.059 719.483a2.154 2.154 0 01.013-.565c.033-.13.256-.218.275-.343s-.138-.292-.14-.44c0-.131.183-.292.147-.389a1.176 1.176 0 00-.366-.467 1.508 1.508 0 00-.476-.14l.255.885c-.552-.336-1.165-.6-.9-1.416l.73.314c.09-.976-.815-.468-1.163-.93.51.06.85-.291 1.363-.223.238.031.548-.474.912-.818l1.737 1.417.167-1.022 2.3-.444c.4.511.712.976 1.092 1.376.33.347.784.578 1.1.932a8.764 8.764 0 011.674 3.517c.132.448.278 1.157-.577 1.276 0 .822-.863.945-1.254 1.466a1.847 1.847 0 01-2.292.388 8.5 8.5 0 01-3.216-2.725c-.443-.533-.946-1.041-1.381-1.649z"/>
        <path data-name="Path 3368" d="M403.82 739.753l.774.264c.057-1.315-1.3-1.683-1.491-2.895a3.208 3.208 0 01.661.3 10.812 10.812 0 01.8.789 2 2 0 00-.56-1.261c.822-.994.822-.994 1.792-1a8.665 8.665 0 001.672 1.811c.755.461.978 1.248 1.534 1.813a7.786 7.786 0 011.237 1.967 2.237 2.237 0 01.3 1.259c-.08.5-.295 1.241-.65 1.384-.585.236-.454.649-.638 1a1.737 1.737 0 01-1.23 1.062c-.369.061-.809.343-1.08.221a5.738 5.738 0 01-1.829-1.2 31.383 31.383 0 01-2.531-3.154c-.2-.274-.107-.755-.165-1.3l.588.474c-.115-.776.582-1.054.816-1.534z"/>
        <path data-name="Path 3369" d="M395.601 797.081l-.832-.458c-.351 1.27-.438 1.335-1.476.878.274.637.493 1.148.733 1.7l-.829.481-1.582-1.583c-.338.762.593 1.114.5 1.848-.835.117-1.319-.451-1.8-.973-.263-.286-.4-.684-.675-.959a34.534 34.534 0 01-3.3-3.935 2.69 2.69 0 00-.328-.332 3.115 3.115 0 01-1.292-2.088c.608-.372.93.2 1.343.557.42-.7-.551-.789-.508-1.3.037-.618 1.213.17.914-.84h1.693c.484.342.975.678 1.457 1.028a9.142 9.142 0 001.394 1.143c.574.278.955.936 1.46 1.381.33.291.539.689 1.066.82.381.094.584.673 1.163.6.161-.021.452.27.534.477a11.722 11.722 0 01.365 1.555z"/>
        <path data-name="Path 3370" d="M384.861 692.537c.538.036.909-.243 1.4.112l-.629.217c.185.626.39 1.249.54 1.884.039.163-.046.484-.16.532-.627.265-.816.94-1.3 1.309a1.713 1.713 0 01-.823.249c-.141.016-.308-.2-.45-.183a1.6 1.6 0 00-.512.272c-.268-.948-.254-.986-1.311-1.346-.632-.215-.763-.837-1.211-1.228l-.306.652c-.158-.166-.423-.315-.422-.464.008-1.862.007-1.9-.844-3.02-.479.842.439 1.329.489 2.153-.228-.036-.567-.009-.607-.106-.4-.971-1.008-1.888-.383-3.053.194-.362.229-.552.663-.559a1.681 1.681 0 00.8-.313c.619-.391 1.216-.818 1.878-1.269l.257.384c.522.364 1.067-.616 1.154.406.025.29.673-.4.673.358 0 .293.539.588.81.858l-.281.73.231.16.443-.843.654 1.11z"/>
        <path data-name="Path 3371" d="M332.321 739.226l-.961-1.213-.4.812a3.514 3.514 0 01-1.35-1.233c-.761-1.073-1.35-2.258-2.121-3.333a2.873 2.873 0 01-.315-2.351c.712-.144.867.692 1.46.9v-1.522l3.2-.451a8.386 8.386 0 012.211 3.11c.277.664.849 1.163 1.022 1.923.069.3-.316.7.157.928a3.743 3.743 0 01-.145.367c-.774-.279-1.034.843-1.779.663-.048-.012-.18.276-.254.433a4.99 4.99 0 01-.22.531 2.943 2.943 0 01-.505.436z"/>
        <path data-name="Path 3372" d="M366.941 758.131l.619 1.431.288-.761c.07.043.185.073.2.129a3.144 3.144 0 00.782 1.4 3.737 3.737 0 01.557.86 1.762 1.762 0 001.311 1.013l.251-.51.857.642c0 .195.021.279 0 .294-.283.184-.573.358-.837.52l.249 1.393-1.094-.532-.63 1.27-.757.086v.695a1.452 1.452 0 01-2.109-.112c-.742-.676-1.578-1.248-2.334-2.053l.962-.635a4.712 4.712 0 00-.926-1.744 10.692 10.692 0 01-1.01-1.885c.459-.564.82-.146 1.24.03.018-.157.091-.326.04-.439-.313-.705-.178-1.054.487-1.084.622-.031 1.248-.008 1.854-.008z"/>
        <path data-name="Path 3373" d="M322.455 764.312l.743 1.1c.07-.217.165-.356.143-.472-.107-.565-.245-1.123-.389-1.759h.908l.366.759v-1.282a1.773 1.773 0 00.434-.16c.242-.181.626-.591.666-.558.4.327.888.129 1.274.277a1.448 1.448 0 011.112 1.337c0 .219-.293.462-.249.646.036.15.437.183.557.352a.618.618 0 010 .589c-.405.323-.316.741-.288 1.133a.788.788 0 01-.614.91c-.465.132-.573.429-.671.874a1.188 1.188 0 01-1.3 1.014 3.007 3.007 0 00-.757.049c-.621.135-1.4-.013-1.6-.47-.472-1.111-1.157-2.162-1.029-3.47.06-.505.367-.65.694-.869z"/>
        <path data-name="Path 3374" d="M372.581 736.191l1.293.379a1.183 1.183 0 00-.172-1.437c.547-.5.912.252 1.449.171l.155-.835c.421-.451.8.38 1.309-.011s.651.464 1.093.564a1.424 1.424 0 01.657.532c.587.72.679 1.738 1.469 2.366.19.151.088.667.131 1.126-.876-.43-.93.961-1.774.631-.259.42-.015 1.182-.964 1.273l-.481-.82-.377.788c-.532.126-.775-.333-.95-.624a6.482 6.482 0 00-2.305-2.3 1.278 1.278 0 01-.533-1.803z"/>
        <path data-name="Path 3375" d="M364.976 694.661l-1.98 1.556h-1.312c-.511-.739-.677-1.712-1.431-2.322a4.225 4.225 0 00-1.409-2.385c-.2-.228-.154-.663-.238-1.088.226-.062.449-.059.566-.167 1.2-1.123 2.329-.492 3.286.274a10.3 10.3 0 012.083 2.4 5.234 5.234 0 01.435 1.732z"/>
      </g>
      <g data-name="Group 5752" fill="#c3fc33">
        <path data-name="Path 3391" d="M483.312 564.443a16.977 16.977 0 01-4.839 4.462 15.362 15.362 0 00-3.35 2.536c-.364.352-.794.341-1.152.645a24.107 24.107 0 01-2.354 2.275c-2.18 1.418-4.344 2.851-6.572 4.2-1.47.89-2.899 1.867-4.394 2.714a19.046 19.046 0 01-9.025 2.284c-3.67.096-7.348.306-11.007.164a46.792 46.792 0 01-19.521-4.877c-3.72-1.88-7.241-3.993-9.851-7.192a37.373 37.373 0 01-8.15-17.54 6.487 6.487 0 00-.195-.728 18.5 18.5 0 01-.955-6.7 19.525 19.525 0 00-.086-3.45c-.338-3.417.997-6.248 3.187-8.755a24.893 24.893 0 017.929-5.766 17.908 17.908 0 008.344-8.669c1.734-3.54 2.386-7.34 3.032-11.159.398-2.343.84-4.68 1.206-7.027.588-3.785.109-7.525-.411-11.286a54.7 54.7 0 01-.106-14.755 21.115 21.115 0 014.937-10.844 17.386 17.386 0 015.405-4.587 36.038 36.038 0 016.57-2.753 53.467 53.467 0 0116.927-1.704c6.54.307 13.049.224 19.41-1.636a134.827 134.827 0 0013.858-4.922 76.122 76.122 0 0119.126-5.638c6.46-.858 12.936-1 19.12 1.32 9.312 3.485 16.11 9.694 18.978 19.444 2.121 7.208.43 13.968-3.413 20.268a121.239 121.239 0 01-2.122 3.388 26.054 26.054 0 01-7.03 7.237c-1.65 1.142-3.361 2.188-5.006 3.314a56.036 56.036 0 01-6.008 3.498 59.031 59.031 0 00-6.8 4.19c-.76.534-1.713.68-2.478 1.272a62.909 62.909 0 00-8.312 7.144 18.379 18.379 0 00-3.515 4.792c-.52 1.162-.88 2.38-1.417 3.528a22.574 22.574 0 00-1.482 5.42c-.133.707-1.139.952-.98 1.062.848.592-.003.883-.126 1.274-.072.231-.307.43-.332.657-.417 3.867-2.114 7.356-3.345 10.968-1.142 3.354-2.085 6.851-4.172 9.785-.763 1.071-1.442 2.207-2.225 3.268-.936 1.275-2.19 2.334-2.864 3.774-.943 2.03-2.641 3.401-4.087 4.998-.079.088-.255.09-.388.133.5-1.082 1.721-1.58 2.171-2.716a26.136 26.136 0 00-4.013 4.286zm8.46-107.586a17.223 17.223 0 004.22-1.695 20.885 20.885 0 00-4.207 1.723 6.354 6.354 0 00-2.726.923 6.965 6.965 0 002.714-.952zm17.624-11.091a3.385 3.385 0 00.628.027 59.457 59.457 0 0115.41-.283c.186.022.42.114.618-.112-.338-.071-.652-.145-.97-.203a42.856 42.856 0 00-12.587-.085 7.434 7.434 0 00-3.091.684c-1.085-.31-2.057.347-3.106.381a.391.391 0 00-.308.572c.052.112.144.206.23.128.905-.827 2.227-.436 3.175-1.11zm-80.07 131.4a21.016 21.016 0 002.019.724c2.827.71 5.703 1.172 8.576 1.642 4.263.7 8.56.341 12.841.324a10.368 10.368 0 005.702-1.393 67.336 67.336 0 0015.335-13.296c3.54-4.195 7.545-7.995 11.194-12.102a43.141 43.141 0 006.506-9.75c1.44-2.952 2.379-6.095 3.52-9.163.94-2.523 1.814-5.066 2.896-7.545a41.122 41.122 0 001.552-5.64 26.131 26.131 0 014.229-9.259 42.245 42.245 0 016.645-6.9 96.34 96.34 0 0116.256-10.453 70.765 70.765 0 008.873-5.375 29.975 29.975 0 0010.774-14.788 13.063 13.063 0 00-2.27-13.037c-5.456-6.845-12.366-10.915-21.27-11.197a55.358 55.358 0 00-20.056 3.26c-4.056 1.408-7.952 3.22-12.001 4.64-5.517 1.929-11.066 3.74-16.932 4.283a88.315 88.315 0 01-13.618-.052 48.194 48.194 0 00-11.532.63 24.9 24.9 0 00-11.929 5.291c-.413.347-.42.338-1 .14-.175-.063-.241.08-.34.177a8.13 8.13 0 00-2.12 3.041c-.303.807-.414 2.084-.833 2.37-1.346.927-1.116 2.383-1.336 3.498a31.1 31.1 0 00-.5 4.322 54.64 54.64 0 00.326 10.928c.494 3.32.931 6.648.221 9.947-.206.955.512 2.394-1.012 2.94 0 0 .048.124.064.187a6.632 6.632 0 01-.164 3.509c-.34 1.077-.322 2.208-.658 3.272-.543 1.718-.515 3.594-1.51 5.197a12.966 12.966 0 00-1.018 2.402c-.662 1.82-1.914 3.329-2.674 5.119a9.72 9.72 0 01-1.812 1.985c-2.2 2.376-5.07 3.752-7.758 5.426-2.528 1.574-5.252 3.027-6.539 5.978-.518 1.195-1.347 2.344-1.133 3.716.573 3.689.194 7.493 1.51 11.092 1.025 2.8 1.292 5.839 2.813 8.501a43.492 43.492 0 004.822 7.563 15.916 15.916 0 003.286 3.067 48.012 48.012 0 0010.058 4.78zm52.805-19.31c-2.248 3.057-5.293 5.236-7.502 8.194 1.586-.43 7.616-6.892 7.505-8.195zM474.24 456.9a36.832 36.832 0 0011.38-3.117c-3.634 1.106-7.266 2.214-10.993 2.976a2.637 2.637 0 00-.384.14zm-39.382 5.839c2.324-1.193 4.695-2.287 7.084-3.344a17.787 17.787 0 00-7.078 3.343zm-30.63 74.928c.81-.982 1.49-2.047 2.244-3.064a6.512 6.512 0 00-2.24 3.063zm28.882-72.92c.024-.274-.055-.454-.306-.495a.786.786 0 00-.93.507c-.096.224.023.318.226.353.43.073.723-.167 1.019-.369z"/>
        <path data-name="Path 3392" d="M473.973 542.031c.05-.262.171-.47-.033-.681-.18.36-.621.616-.239 1.132.222.3-.167.515-.327.722a655.42 655.42 0 00-4.287 5.61c-1.35 1.783-2.812 3.495-4.025 5.383a22.2 22.2 0 01-2.182 2.53 3.933 3.933 0 00-.817 1.244c-.36.988-.439.99-1.164.137a.9.9 0 00-.306-.14c-.04.11-.113.207-.097.284a2.892 2.892 0 01-1.34 2.98 6.009 6.009 0 00-1.803 1.66 6.088 6.088 0 01-3.18 2.212c-.114.04-.302-.066-.373.1-.42.984-1.402 1.171-2.228 1.546-.79.359-1.657.514-2.432.942a12.844 12.844 0 01-4.24 1.485 18.032 18.032 0 01-2.294.54c-2.781.069-5.555.268-8.343.262-4.712-.013-8.656-1.948-12.42-4.453a19.427 19.427 0 01-5.484-5.59 14.771 14.771 0 01-1.303-2.708 22.673 22.673 0 01-1.571-11.094 9.321 9.321 0 013.278-6.13c.49-.424.97-1.039 1.927-.555.416.211 1.143-.441 1.667-.833a64.612 64.612 0 0010.092-9.401 58.471 58.471 0 008.423-11.833 27.981 27.981 0 002.681-10.035 20.988 20.988 0 00-1.043-8.092c-.577-1.985-1-4.014-1.56-6.004-.195-.71.44-.878.82-1.555-.928.62-.967.411-.979-.378a16.766 16.766 0 00-.395-2.423 10.135 10.135 0 01.382-5.097c.218-.615.085-1.246.377-1.794a16.458 16.458 0 011.158-2.053c.817-1.112 1.525-2.34 3.05-2.743.42-.11.484-.908 1.016-1.178a30.037 30.037 0 017.01-3.027 106.341 106.341 0 0118.184-2.39 33.528 33.528 0 0012.51-2.668c5.846-2.661 11.827-4.994 17.884-7.128a52.512 52.512 0 0117.752-3.39 27.641 27.641 0 017.569 1.088c3.535 1.018 5.547 3.527 6.601 6.864 2.026 6.408.879 12.372-2.808 17.893a48.311 48.311 0 01-8.767 9.994 16.635 16.635 0 01-5.23 3.489 12.357 12.357 0 00-2.677 1.88c-3.06 2.161-6.488 3.722-9.545 5.904-1.361.972-2.61 2.064-3.93 3.077a72.853 72.853 0 00-7.786 7.53 34.95 34.95 0 00-5.22 7.873q-2.435 4.5-4.962 8.952a30.9 30.9 0 01-3.15 4.99c-.884 1.024-1.364 2.284-2.32 3.239-.554.543-.55 1.569-1.521 1.831zm-45.233-9.546c.33-.004.505-.268.688-.462a54.3 54.3 0 005.039-5.729 15.7 15.7 0 002.492-3.734c-1.593 2.33-3.605 4.311-5.33 6.527-.915 1.177-2.157 2.082-2.874 3.423-1.715 1.107-2.951 2.736-4.486 4.038a20.288 20.288 0 004.471-4.063zm14.263-35.95c.065-.122.103-.319.198-.352.174-.06.182.13.236.26.15.369-.119.743.125 1.143a4.8 4.8 0 01.677 2.466c.018.787.573 1.558.854 2.348.062.176.12.457-.095.597-.399.26-.224.45.04.646a1.111 1.111 0 01.43.948 14.543 14.543 0 01-.098 3.933 8.238 8.238 0 00-.348 2.577 10.435 10.435 0 01-1.054 5.363c-.62 1.477-1.471 2.916-1.951 4.448-.415 1.324-1.456 2.147-2.08 3.294-.756 1.388-2.24 2.3-2.997 3.754-.465.894-1.712 1.244-1.975 1.99-.605 1.723-2.465 2.092-3.295 3.545a3.756 3.756 0 01-1.333 1.436c-1.23.642-1.97 1.879-3.23 2.505-1.587.789-2.77 2.184-4.43 2.938a25.435 25.435 0 00-2.852 1.765c-.857.54-1.226 1.717-1.779 2.638-.803 1.33-.385 2.747-.472 4.14a17.932 17.932 0 002.169 9.284c2.802 5.458 7.39 8.587 13.765 8.584.647 0 1.294-.002 1.94.014a29.106 29.106 0 0010.943-2.033c4.642-1.715 7.852-5.308 11.265-8.568a40.65 40.65 0 003.163-4.103 34.831 34.831 0 002.145-2.837c.646-1.004 1.37-1.95 2.083-2.892s1.548-1.807 2.2-2.79c.58-.876 1.363-1.561 1.924-2.483.749-1.232 1.665-2.398 2.509-3.594a106.957 106.957 0 008.137-13.477c1.316-2.607 2.555-5.266 4.093-7.736a58.61 58.61 0 0119.72-19.05c3.568-2.178 7.243-4.182 10.894-6.224 5.226-2.923 9.067-7.27 12.507-12.044a16.2 16.2 0 003.114-9.934c-.03-2.071-.508-3.966-2.555-5.118a18.134 18.134 0 00-6.102-1.654 15.716 15.716 0 00-3.999.023 42 42 0 00-9.551 1.632c-.731.255-1.465.057-2.2.31-.94.322-1.736.93-2.72 1.17-.566.136-1.122-.032-1.682.202-3.554 1.49-7.314 2.462-10.718 4.343-1.182.654-2.497 1.064-3.73 1.623a35 35 0 01-14.583 3.205 73.308 73.308 0 00-18.293 2.412c-2.288.596-4.68 1.07-6.689 2.51-1.165.835-2.555 1.612-3.137 2.842a14.446 14.446 0 00-1.812 5.832c-.01.51-.516 1.04-.476 1.23.155.728.134 1.482.328 2.198.42 1.544 1.234 3.033.777 4.742zm25.42 47.493a38.244 38.244 0 00-4.73 5.758c-1.47 2.068-3.134 3.976-4.699 5.961-1.48 1.878-3.232 3.54-4.864 5.296 5.957-4.689 9.863-11.064 14.293-17.015zm31.523-81.783a66.4 66.4 0 0117.365-3.524c-3.55-.784-15.209 2.006-17.365 3.524zM451.2 474.3c-3.286.826-6.385 2.02-8.659 4.723a44.964 44.964 0 018.66-4.723zm-33.87 66.586c-1.533.705-3.3 3.98-2.821 4.96a21.764 21.764 0 012.82-4.957zm77.855-76.775l-.134-.312a56.973 56.973 0 00-7.608 3.296zm-16.647 6.385a24.9 24.9 0 007.418-2.884c-2.465.973-4.916 1.994-7.415 2.886z"/>
        <path data-name="Path 3393" d="M497.029 495.977a1.6 1.6 0 01-.579 1.59c-1.119 1.23-2.743 1.926-3.558 3.455a4.834 4.834 0 01-1.347 1.203c-1.146.98-1.802 2.366-2.866 3.34-1.01.922-1.715 2.08-2.73 2.97-.537.475-.693 1.253-1.32 1.673a19.347 19.347 0 00-2.249 2.868c-.628 1.091-1.288 2.165-1.945 3.24-.113.185-.277.357-.533.215s-.446-.067-.428.22a3.063 3.063 0 01-1.344 2.337c-1.814 1.745-3.511 3.6-5.217 5.444-.337.366-1.136-.058-1.148.91-.007.49-.77 1.062-1.31 1.5s-.973.959-1.475 1.419c-3.717 3.385-7.287 6.918-10.772 10.545-1.932 2.011-4.035 3.852-6.016 5.823a14.454 14.454 0 00-1.355 1.676 2.922 2.922 0 01-1.807 1.385.461.461 0 00-.357.172c-1.89 2.45-4.781 3.04-7.483 3.894a28.168 28.168 0 01-6.03.81 12.519 12.519 0 01-3.801.272 33.009 33.009 0 01-3.878-.931 5.863 5.863 0 01-3-2.18 1.127 1.127 0 01.14-1.556 7.661 7.661 0 014.05-2.543 4.35 4.35 0 001.812-.658c.382-.3.614.337 1.223.059a22.342 22.342 0 005.543-4.057 98.222 98.222 0 009.672-10.437 32.2 32.2 0 003.336-5.147 43.7 43.7 0 001.712-3.475c.242-.55.636-.929 1.202-.334.338.354.573.102.843-.041a.32.32 0 00.141-.458c-.156-.318-.453-.155-.675-.132-.91.095-1.081-.22-.734-1.052a24.2 24.2 0 002.092-7.106 16.17 16.17 0 00-.085-3.733c-.51-3.61-1.598-7.091-2.389-10.639-.579-2.596-1.191-5.206-.542-7.881.152-.623-.058-1.525.947-1.71a.227.227 0 00.143-.136c.694-2.408.79-2.443 2.989-3.51a12.459 12.459 0 014.469-1.1c5.537-.455 10.688-2.176 15.838-4.145 6.269-2.401 12.287-5.436 18.656-7.534a58.853 58.853 0 0121.562-2.596c3.866.198 5.494 3.727 3.424 7.058a37.65 37.65 0 01-7.64 8.743c-3.42 2.924-7.075 5.54-10.67 8.232a27.763 27.763 0 01-3.003 2.206c-.568.318-1.016.616-1.508-.168zm-56.86 43.635c.296.084.463-.118.644-.288 2.29-2.134 4.288-4.546 6.473-6.779 1.048-1.07 1.41-2.68 2.803-3.468a.3.3 0 00.058-.531c-.257-.243-.496-.099-.62.139a14.732 14.732 0 01-1.918 2.4 66.06 66.06 0 01-5.193 5.986 11.081 11.081 0 00-2.231 2.576 14.215 14.215 0 00-3.178 2.907c1.022-1.017 2.475-1.567 3.163-2.942zm51.894-60.764c-1.389.1-2.401 1.041-3.577 1.608-1.367.248-2.415 1.197-3.704 1.622-2.223.734-4.475 1.408-6.633 2.307a48.55 48.55 0 01-13.884 3.522c-1.787.18-3.613-.307-5.378.49-1.077.488-2.273.769-2.786 1.957a10.133 10.133 0 00-.836 5.548c.515 3.582 1.725 6.99 2.596 10.482.906 3.628 1.583 7.234.71 11.025a60.365 60.365 0 01-3.805 10.347c-.295.683-1.01 1.177-1.33 1.976a5.907 5.907 0 01-1.969 3.032c-1.901 1.199-3.071 3.08-4.593 4.625-.503.505-.654 1.464-1.357 1.735a5.791 5.791 0 00-2.052 1.766 2.938 2.938 0 01-.859.645 14.338 14.338 0 00-2.761 2.001 22 22 0 01-5.381 3.24c-.57.233-1.227-.06-1.704.453a4.328 4.328 0 01-1.757 1.025 3.466 3.466 0 00-1.558 1.285 1.277 1.277 0 00.901.177c1.74-.005 3.412-.517 5.138-.652a17.827 17.827 0 008.417-2.814 34.506 34.506 0 005.138-4.438c3.223-3.125 6.473-6.226 9.6-9.444a152.2 152.2 0 015.372-5.282c3.05-2.843 5.938-5.845 8.792-8.877a52.163 52.163 0 006.18-7.855 55.164 55.164 0 015.434-6.836c3.666-4.165 7.356-8.3 12.027-11.408 4.2-2.793 8.427-5.546 12.426-8.63a33.1 33.1 0 007.833-7.986c.223-.345.678-.73.46-1.12-.184-.331-.734-.185-1.123-.174a82.45 82.45 0 00-12.133 1.256c-.726.129-1.538.717-2.322.006-.11-.101-.446-.017-.424.165.082.653-.459.448-.717.509q-2.428.581-4.833 1.25c-1.251.342-2.31 1.104-3.548 1.462zm-46.46 67.594a34.955 34.955 0 003.419-2.67c2.361-2.395 4.9-4.617 7.212-7.07a146.762 146.762 0 0110.774-10.518.656.656 0 00.22-.93c-7.637 6.724-14.14 14.46-21.625 21.188zm47.822-72.17a68.33 68.33 0 0110.238-2.311c3.521-.473 7.05-.857 10.584-1.127-7.08.274-14.138.71-20.821 3.439zm-10.964 4.811l-.098-.314-11.125 4.252.104.275zm-22.571 6.257c-2.26-.373-5.153.83-5.424 2.26a12.768 12.768 0 015.423-2.258zm7.584 39.593l.247.272c.64-.746 1.79-1.024 1.794-2.36z"/>
        <path data-name="Path 3394" d="M492.063 478.848a6.836 6.836 0 01-3.577 1.608c1.177-.568 2.188-1.508 3.577-1.608z"/>
      </g>
      <g data-name="Group 7447" transform="rotate(14.98 -1667.275 1289.99)">
        <path data-name="Path 4123" d="M93.896 25.086s31.01 17.774 39.87 20.728 17.167 4.615 20.49 5.537 4.614 5.722-7.937 4.246-29.991-5.559-34.423-8.143-18-11.883-18-11.883z" fill="#ff869e"/>
        <path data-name="Path 4124" d="M117.884 89.218l33.971-59.936L192.6 88.156z" fill="#ff009d"/>
        <path data-name="Path 4125" d="M83.934 9.393a51.537 51.537 0 019.687 8.966L96.4 21.97s-5.839 33.115-9.094 43.639a176.045 176.045 0 01-9.823 23.608L40.888 67.625s19.866-31.512 28.543-42.7S83.934 9.393 83.934 9.393z" fill="#005fd0"/>
        <path data-name="Path 4126" d="M126.03 170.825s.84 8.454 1.076 11.524 2.126 2.362 9.211 2.6 25.038 0 25.038 0 1.653-2.993-3.071-4.449-13.754-2.875-15.617-8.072a38.928 38.928 0 01-2.097-7.232z" fill="#ff869e"/>
        <path data-name="Path 4127" d="M77.016 16.098c-1.455 3.092-.277 8.826-.277 8.826 2.05 6.3 6.142 30.867 13.45 40.686s27.122 17.2 33.059 20.229c5.136 2.616 23.593 9.644 26.105 8.959s2.968-1.827 2.968-1.827 3.882 0 2.512-1.826c-.528-.7-15.132-9.529-23.18-13.479-12.254-6.015-23.529-12.416-26.619-16.348-5.024-6.394-9.478-26.294-13.224-38.905-3.211-10.813-11.646-8.081-11.646-8.081z" fill="#ff869e"/>
        <path data-name="Path 4128" d="M36.002 165.827l-8.133.825-9.923 1.014-4.692.476-1.395-17.189 14.652-1.456 9.966-.988 19.329-1.912-3.092-21.076-1.548-10.578-1.59-10.846-1.559-10.6-.1-.7 5.262 2.33h.011l23.1 10.2-.306 10.8-.127 4.422-.326 11.318-.639 22.679-.211 7.345-6.536.665-20.25 2.061z" fill="#0b0151"/>
        <path data-name="Path 4129" d="M143.446 174.07h-17.411s-.09-.608-.254-1.681a625.668 625.668 0 00-1.892-11.762c-.888-5.189-1.955-11.043-3.028-15.968-.555-2.531-1.109-4.814-1.649-6.632-.655-2.235-1.284-3.767-1.833-4.19-1.448-.74-3.382-1.638-5.707-2.663a532.27 532.27 0 00-10.378-4.438c-8.571-3.593-19.028-7.884-29.136-12.249a658.611 658.611 0 01-10.43-4.607c-12.622-5.723-23.286-11.202-26.906-15.034-4.274-4.522-3.286-10.816-.872-16.4a50.529 50.529 0 015.533-9.449c1.533-2.092 2.679-3.387 2.679-3.387s34.737 18.864 57.765 31.133c3.884 2.066 7.429 3.947 10.425 5.522 4.27 2.24 7.413 3.857 8.777 4.486 6.278 2.9 11.418 4.655 14.235 9.839a17.711 17.711 0 011.77 5.141c.285 1.453.677 3.694 1.141 6.452.819 4.888 1.854 11.4 2.885 17.965a6720.28 6720.28 0 014.286 27.922z" fill="#160078"/>
        <path data-name="Path 4130" d="M13.254 168.141v.005s-6.679 11.546-7.646 14.78c-.19.629-3.852 1.511-5.057-1.8-1.151-3.151-.243-19.986.365-29.085l10.943-1.089z" fill="#ff869e"/>
        <path data-name="Path 4131" d="M83.935 9.393s7.945-10.74 16.769-6.3c5.035 2.535 4.578 9.5 4.578 9.5l3.653 5.026h-4.8s-.685 2.055-1.37 3.882-2.891 7.535-4.985 4.11S83.935 9.393 83.935 9.393z" fill="#ff869e"/>
        <path data-name="Path 4133" d="M103.162 20.43a3.1 3.1 0 01-2.729-1.282c-.975-1.466-.894-1.955-1.559-1.759-1.348.4 1.267 3.606 2.144 3.9a13.321 13.321 0 001.668.434z" fill="#00040a"/>
        <circle data-name="Ellipse 198" cx=".805" cy=".805" transform="translate(101.067 12.713)" fill="#00040a" r=".805"/>
        <path data-name="Path 4134" d="M104.774 8.4s-6.1.219-9.218 2.583a60.609 60.609 0 01-11.622 7.089c-3.789 1.576-11.029.662-7.646-4.554s7.2-9.479 11.374-11.5c6.233-3.02 10.468-2.342 13.61 0a9.781 9.781 0 013.502 6.382z" fill="#160078"/>
        <path data-name="Path 4135" d="M138.981 81.554l8.99 3.871s2.985-2.142 5.186-1.935 2.508.742 3.761 1.224.386 2.025-.964 1.35-3.568-.964-4.242-.289l-.675.675-1.639 1.35 1.547.923h6.581s.683 1.136-.254 1.678a2.531 2.531 0 01-1.528.444s.374.69-.5 1.725a2.138 2.138 0 01-2.208.591s-.049 1.084-.986 1.232a4.851 4.851 0 01-1.972-.2z" fill="#ff869e"/>
      </g>
      <g data-name="Group 7449">
        <path data-name="Path 4208" d="M511.25 612.344c-.233.539-6.566 5.52-7.03 8.146s7.803.698 7.803.698z" fill="#ffc9af"/>
        <path data-name="Path 4210" d="M512.02 621.185s4.635-12.978 2.703-13.824c-1.236-.54-6.95 12.202-5.633 13.976s2.93-.152 2.93-.152z" fill="#ffc9af"/>
        <path data-name="Path 4211" d="M511.092 631.842c-.174 1.818 1.002-10.22.927-10.657 0 0-4.092-2.395-7.8-.695l-2.548 10.118s3.015 1.934 4.866 2.085a13.44 13.44 0 004.555-.85z" fill="#e54c1d"/>
        <path data-name="Path 4212" d="M411.08 611.224s2.86-8.188 4.56-10.66a3.866 3.866 0 012.044-1.348s1.583-3.281 2.743-2.743-1.387 7.72-1.387 7.72 3.627-6.099 4.634-5.407-2.86 8.421-3.324 14.754c0 0-3.86.466-5.792-.231a11.967 11.967 0 01-3.477-2.085z" fill="#ffc9af"/>
        <path data-name="Path 4213" d="M420.35 613.54s6.255-7.337 6.255-7.8-2.549-1.004-6.258 4.246.003 3.554.003 3.554z" fill="#ffc9af"/>
        <path data-name="Path 4215" d="M411.082 611.223s5.406-1.235 9.267 2.317l-.85 10.271s-9.652-1.003-9.576-1.853 1.16-10.735 1.16-10.735z" fill="#e54c1d"/>
        <path data-name="Path 4216" d="M466.841 666.982c.256-2.352 3.832-6.13 3.832-6.13s-2.175 2.67-8.471 1.259c-7.762-1.737-8.934-4.763-8.934-4.763s1.158 2.346-.854 8.297c0 0 5.607 3.868 10.296 3.461s3.958-.543 4.131-2.124z" fill="#e54c1d"/>
        <path data-name="Path 4217" d="M470.47 717.41c.017.494 9.384 61.75 9.384 61.75l51.204 6.715s-12.05 10.66-7.067 28.613c-.927-1.158-44.484-7.183-53.518-14.364s-13.323-9.615-19.927-48.192 3.708-41.47 3.708-41.47 16.102 3.127 16.216 6.948z" fill="#da2032"/>
        <path data-name="Path 4218" d="M453.636 728.225c-4.755 1.126-3.62 3.394-5.093 7.44a156.194 156.194 0 002.005 16.269c1.589 9.282 3.046 16.47 4.462 22.133 5.5-28.466.11-46.194-1.374-45.842z" fill="#1a1a1a"/>
        <path data-name="Path 4219" d="M434.02 714.478s-14.052 63.407-8.032 80.549 42.282 60.353 42.282 60.353 11.817-20.62 25.37-22.59c-1.041-1.504-44.248-39.614-44.487-40.083s7.185-55.606 7.647-63.481.58-17.027-2.548-18.763-16.14-5.64-20.233 4.015z" fill="#da2032"/>
        <path data-name="Path 4271" d="M470.818 717.066l.58-7.067s4.636-1.161 4.401-4.865-2.432-7.297-1.506-13.554c0 0 11.353-4.17 17.725-13.09s2.858-6.95 6.796-12.28 7.107-10.5 7.182-15.059.926-11.74 3.089-13.438 3.475-5.33 1.933-6.72-11.664-3.01-12.126.85 1.003 6.565-3.784 10.89-7.491 13.36-11.897 16.988-10.464 3.9-13.824 8.109c-.495.62-2.085-2.394-2.085-2.394-2.278 5.29-14.556-.272-14.556-.272s-4.826 1.274-6.14 4.132c0 0-1.002.694-3.474-2.085s-5.715-9.731-12.897-12.897a30.042 30.042 0 00-7.414-18.69s.688-11.443-2.82-14.402c-4.208-3.553-9.704-3.2-11.622 1.043-1.273 2.82.541 5.563.931 10.116s-1.78 10.043.769 16.916 8.028 12.978 9.113 17.917 5.175 17.222 19.77 20.851c0 0 .155 3.862-3.706 8.031s-2.7 9.348-.541 11.353l-.695 7.028s19.384-3.01 36.798 2.589z" fill="#f6c32c"/>
        <path data-name="Path 4272" d="M453.197 656.949c.082-.475.869-.898 1.332-1.064 1.317-.45 2.734-.592 6.038-.044 3.318.662 7.267 1.432 9.986 4.37a.62.62 0 01-.054.884c-.98.858-3.732 2.538-9.238 1.117-5.2-1.342-8.238-4.243-8.064-5.263z" fill="#1a1a1a"/>
        <path data-name="Path 4273" d="M467.227 661.575v-7.646l-9.035-2.2-2.027 7.414s5.474 4.026 11.062 2.432z" fill="#ffc9af"/>
        <path data-name="Path 4274" d="M458.308 653.583s-8.167-5.27-.64-13.15 11.994 3.42 11.994 3.42 4.13 11.161-2.665 12.164c-3.534.52-8.689-2.434-8.689-2.434z" fill="#ffc9af"/>
        <path data-name="Path 4275" d="M460.553 646.156a2.2 2.2 0 01-2.245-.913c-.577-1.063-.33-2.357 1.504-3.587 0 0-6.082-1.912-2.202-6.256s11.412-3.074 15.234 1.908 4.19 11.14.637 15.465c-2.934 3.572-6.95 4.48-11.238 1.621a4.054 4.054 0 01-2.002-2.763 2.522 2.522 0 01.836-2.207c.604-.545 1.423-1.522 1.065-2.573-.36-.972-1.079-.804-1.59-.695z" fill="#55353a"/>
        <path data-name="Path 4276" d="M480.212 647.264c-4.227 1.711-11.07.287-12.782-3.94s2.358-9.66 6.585-11.37a8.259 8.259 0 016.198 15.31z" fill="#55353a"/>
        <path data-name="Path 4277" d="M531.058 785.875s-7.006 6.43-8.052 15.464.985 13.148.985 13.148 3.938-2.666 6.372-15.408c1.592-8.347.695-13.204.695-13.204z" fill="#1a1a1a"/>
        <path data-name="Path 4278" d="M529.031 790.912l12.917 3.301s6.72 6.372 5.851 11.18-5.155 7.818-5.387 7.703-17.028-4.287-17.028-4.287-1.814-4.076-.057-10.252c1.788-6.308 3.704-7.645 3.704-7.645z" fill="#ffc9af"/>
        <path data-name="Path 4279" d="M541.946 794.215l9.152-1.621 4.113 34.695-12.8-14.191a21.013 21.013 0 002.49-9.44c.126-4.105-2.955-9.443-2.955-9.443z" fill="#1a1a1a"/>
        <path data-name="Path 4280" d="M551.097 792.594l2.78-.348 3.881 35.043h-2.546z" fill="gray"/>
        <path data-name="Path 4281" d="M493.64 832.79s-6.461.61-14.886 8.516c-9.384 8.803-10.484 14.074-10.484 14.074s3.179.272 14.248-9.962c9.21-8.515 11.122-12.627 11.122-12.627z" fill="#1a1a1a"/>
        <path data-name="Path 4282" d="M487.326 837.252l8.688 10.309s7.414 9.611 4.925 16.626-5.733 7.702-5.733 7.702l-21.086-21.895s-.097-2.053 6.14-8.108c3.998-3.883 7.066-4.634 7.066-4.634z" fill="#ffc9af"/>
        <path data-name="Path 4283" d="M495.204 846.75l12.048 3.128-.696 34.405-12.627-13.9s5.618-3.186 4.692-11.179-3.417-12.454-3.417-12.454z" fill="#1a1a1a"/>
        <path data-name="Path 4284" d="M507.25 849.878l3.07.869-1.332 33.653-2.43-.115z" fill="gray"/>
        <path data-name="Path 4285" d="M471.108 712.836l.054.036.236-2.874s-13.98-5.792-36.684-2.548c0 0 27.705-.521 36.394 5.386z" fill="#1a1a1a"/>
        <path data-name="Path 4286" d="M474.294 691.578l.29-3.417a13.251 13.251 0 007.163-.406 34 34 0 01-7.453 3.823z" fill="#1a1a1a"/>
        <path data-name="Path 4287" d="M425.448 679.801c.05.091.128.23.234.412a25.6 25.6 0 0013.281 7.851 28.908 28.908 0 011.313-4.247 19.714 19.714 0 01-14.828-4.016z" fill="#1a1a1a"/>
        <path data-name="Path 4345" d="M465.292 679.234s-7.973 13.1-17.369 15.092" fill="none" stroke="#e54c1d" stroke-linecap="round" stroke-linejoin="round" stroke-width="2.276"/>
        <path data-name="Path 4346" d="M459.028 694.04s5.517-.32 11.283 4.378" fill="none" stroke="#e54c1d" stroke-linecap="round" stroke-linejoin="round" stroke-width="2.276"/>
      </g>
    </g>
  </g>
</svg>